<?xml version="1.0" encoding="UTF-8" standalone="no"?>
<svg
   xmlns:dc="http://purl.org/dc/elements/1.1/"
   xmlns:cc="http://creativecommons.org/ns#"
   xmlns:rdf="http://www.w3.org/1999/02/22-rdf-syntax-ns#"
   xmlns:svg="http://www.w3.org/2000/svg"
   xmlns="http://www.w3.org/2000/svg"
   width="500"
   height="500"
   viewBox="0 0 132.29167 132.29167"
   version="1.1"
   id="svg8">
  <defs
     id="defs2">
    <filter
       style="color-interpolation-filters:sRGB"
       id="filter1186"
       x="-0.086401066"
       width="1.1728021"
       y="-0.084895515"
       height="1.169791">
      <feGaussianBlur
         stdDeviation="8.6787912"
         id="feGaussianBlur1188" />
    </filter>
  </defs>
  <metadata
     id="metadata5">
    <rdf:RDF>
      <cc:Work
         rdf:about="">
        <dc:format>image/svg+xml</dc:format>
        <dc:type
           rdf:resource="http://purl.org/dc/dcmitype/StillImage" />
        <dc:title></dc:title>
      </cc:Work>
    </rdf:RDF>
  </metadata>
  <g
     id="layer1">
    <g
       id="g912"
       transform="matrix(0.52823179,0,0,0.52823179,175.7899,-18.457472)"
       style="fill:#000000;stroke:#000000;filter:url(#filter1186)">
      <path
         style="fill:#000000;fill-opacity:1;stroke:#000000;stroke-width:0.264583px;stroke-linecap:butt;stroke-linejoin:miter;stroke-opacity:1"
         d="m -310.24984,231.55129 3.77976,3.59077 5.29166,-0.37797 0.94494,-3.96875 -1.6064,-16.91444 2.83483,-10.67783 1.79538,5.00819 2.36236,5.85863 5.19717,14.17411 6.42559,-0.37798 0.37798,-5.76414 -2.64583,-6.80357 -1.32292,-4.06324 -0.0945,-7.84301 0.47246,-2.36235 -0.18898,-2.26785 1.32291,-4.06325 1.64921,-4.54166 1.46998,-4.47677 0.66817,-2.93996 0.46772,-2.53906 0.46773,0.0668 0.26727,1.87088 0.46772,0.33409 h 1.00226 l 0.33408,0.20045 1.06908,0.0668 0.53454,-0.80181 -0.33409,-2.27179 0.60137,-1.5368 0.26726,-0.26727 0.73498,0.46772 0.53454,2.33861 0.73501,0.46772 0.93544,0.0668 0.26725,-1.06908 -0.40089,-1.73725 1.20271,2.07134 1.13589,-0.0668 0.46773,-1.00226 -0.53454,-1.63703 -0.0334,-2.37201 1.43658,-2.20498 1.00227,-0.0668 3.14042,0.86862 9.88896,4.94449 7.88445,2.80633 7.28311,0.93544 5.54582,-1.1359 7.95129,-0.33408 13.11875,-3.08658 6.15038,-1.05059 2.13815,0.006 3.1378,0.87807 -0.28194,4.87684 -0.47557,2.60446 0.0475,6.41464 -0.2781,3.60732 -0.60701,1.86907 0.1256,2.67309 0.7167,6.08256 0.1246,3.00717 -0.82212,6.74612 -0.50771,13.29519 1.2645,1.67424 4.54316,0.14731 4.21632,-2.25913 -1.25587,-4.54737 -0.18597,-4.81144 -0.78531,-5.48141 0.27569,-2.80551 1.64767,-3.53638 0.30842,-2.57156 0.60587,-1.50157 1.34279,-2.13413 1.48222,-4.07142 0.73681,-0.59914 -0.59272,-2.87494 1.15075,-4.94105 1.72117,5.35059 0.79015,3.8778 1.86204,2.94558 0.25386,1.4032 0.56431,0.61666 1.52127,8.74737 0.67903,6.85382 0.0323,3.44921 4.71729,1.72134 5.48142,-0.16525 -2.14654,-6.19871 -3.1946,-11.24247 0.65183,-3.93944 1.45227,-5.75344 -0.41929,-1.372 -0.3297,-0.23766 -0.78356,-4.53915 -0.7552,-3.46951 2.47354,-0.28997 2.17487,-0.75899 3.04856,-1.92452 1.07355,-1.03102 0.83534,-0.0298 1.04116,-1.26503 1.67333,-0.66093 2.38022,-1.894 6.10335,-5.2856 1.20963,-1.59839 0.40481,-0.90029 1.74188,-1.06155 1.7167,-2.96596 1.82115,-1.41092 0.76126,-1.22514 2.70452,-2.63414 1.61274,-1.45769 1.60719,-0.18203 0.85759,-1.64995 2.46502,-1.87922 1.51966,-1.78882 0.27979,0.85167 -2.18315,2.25842 0.45405,4.25424 2.44454,2.84543 5.00853,-0.0728 4.07141,-1.87226 0.68601,-5.66673 -2.53822,-3.03483 -1.60515,-0.29044 -0.18368,-1.22923 3.11542,0.67496 7.08738,-0.0638 3.98873,-0.90353 5.05748,-2.16859 8.22463,-3.8665 2.17448,-1.17912 1.79686,-1.55746 2.126431,-0.32872 2.03116,0.47438 1.22851,-0.0933 2.88359,-1.60368 1.79744,-2.17167 0.37873,-0.80285 1.03978,-0.37699 1.13488,-0.99112 0.94708,-2.26696 0.0505,-3.40174 -0.70741,-1.37083 -1.60528,-1.18269 -8.31154,-4.16558 -7.272081,-4.21185 -3.49419,-2.22391 -1.03912,-0.33171 -1.4159,-1.60773 -0.51953,-0.18948 -3.11568,-2.79051 -4.58055,-2.55567 -0.18703,-2.07904 -0.89728,-0.42607 -0.52036,0.66097 -0.33179,1.13361 -0.37753,-0.47282 -0.18735,-1.74832 -0.47254,0.094 -0.33149,0.80288 -2.8806,-1.56187 -0.42445,-0.8036 -0.0461,-1.27571 -1.17891,-2.41071 -0.80203,-1.22918 -0.75559,-0.37869 -0.33134,0.66115 0.61108,3.30786 -1.36959,-0.6155 -0.28361,0.14147 0.51904,0.7092 -1.55914,-0.002 -1.56067,1.60493 -1.46706,2.54996 -0.0967,2.36226 0.0928,1.74823 -5.38647,0.32564 -3.21413,1.41438 -1.22841,-0.001 -0.66066,-0.85107 -5.85827,-0.38351 -10.67835,0.5569 -13.4162,-2.09153 -8.69238,-1.14213 -8.5049,0.46445 -10.67898,1.21835 -7.65474,0.74873 -10.58296,-0.38796 -4.8192,-0.005 -2.9295,0.18622 -2.07965,0.84849 -20.41062,-0.11375 -11.15084,0.55645 -4.91323,-0.4771 -4.53456,-1.23271 -4.53366,-2.17764 -3.77914,-0.66502 -3.49628,-0.003 -4.06342,0.18516 -6.14193,-0.19478 -6.52035,0.27733 -3.68625,1.03595 -2.45756,0.75364 -2.08037,1.60444 -2.08003,1.22646 -1.79734,2.07717 -1.65597,2.45529 -1.75135,3.40013 -1.09069,4.25121 -0.62085,7.03922 -0.19643,7.89007 -0.38805,10.67747 -0.47764,5.4802 -1.3784,8.73941 -1.70812,7.65241 -1.99276,8.88056 -0.66373,2.40898 -2.27084,3.1634 -0.37967,1.79504 0.8003,3.07181 -1.37453,4.62891 -0.99593,3.96781 1.32002,3.0723 1.93561,1.60823 1.93659,0.56879 0.85437,-4.15693 0.71121,-2.64517 -0.80058,-2.78833 0.0479,-0.66141 1.22933,-0.94378 0.002,-1.65364 0.85148,-1.08588 1.18362,-2.59748 0.0492,-2.07882 -0.56523,-1.84317 2.13971,-14.40833 1.28213,-6.84961 0.95016,-5.52701 0.71485,-6.51941 0.71481,-6.47218 0.24225,-6.37812 0.19149,-2.64565 1.12519,9.26148 1.31556,7.797 1.40962,8.26957 1.31944,3.68651 0.27831,5.48092 -0.24123,5.29144 -1.75269,4.81755 -3.59794,7.60338 -1.23088,2.59742 -0.19023,1.32274 0.37637,1.70125 0.94378,1.22931 1.31663,6.66308 0.84546,5.29246 -0.0535,6.66179 0.22852,8.17395 z"
         id="path906" />
      <path
         id="path908"
         style="fill:#000000;fill-opacity:1;stroke:#000000;stroke-width:0.187763px;stroke-linecap:butt;stroke-linejoin:miter;stroke-opacity:1"
         d="m -171.63472,37.855173 c -0.36969,0.15495 -0.73484,0.35409 -1.14312,0.62411 -12.58302,7.39374 -21.7709,15.18174 -32.35704,26.45685 -9.85453,9.91002 -18.84467,24.27873 -23.9076,33.89932 -4.78955,8.697097 -8.73481,17.695227 -11.88493,26.934957 -5.92345,15.38395 -14.35079,38.23336 -19.24908,47.05092 -3.88551,8.74341 -11.04277,22.90353 -19.42068,29.03603 l -0.003,0.001 c -3.88773,3.89046 -7.02353,6.30328 -13.27026,10.54855 -0.79649,0.66949 -0.40447,1.29836 -0.18961,2.22799 9.01327,15.89243 19.03117,29.37654 24.16404,34.0711 0,0 15.32648,14.92887 20.00478,17.96716 4.67829,3.03829 23.81411,15.22761 26.62992,16.14893 2.81582,0.92134 27.68854,-38.15951 27.68854,-38.15951 0,0 23.71553,-41.47787 31.29651,-63.47568 7.58097,-21.9978 9.24371,-25.51653 10.13509,-30.97395 l -18.1247,-7.08 c -9.62985,1.44834 -18.03369,2.49758 -26.66026,-0.82795 -4.9056,-2.66555 -9.65573,-3.01401 -14.72579,-15.98452 -0.38114,-3.8617 -0.23738,-8.67156 2.20056,-12.16115 2.55801,-3.55676 7.30784,-6.16551 9.10947,-7.64553 1.08132,-1.48303 1.79601,-2.6179 2.04811,-4.1899 l 0.94931,-6.493567 c 1.46071,-4.10349 3.66795,-8.82641 6.39915,-12.13844 4.13131,-5.1266 9.9151,-11.15046 18.77919,-14.02214 0.13074,-0.03 0.2438,-0.05 0.33444,-0.0831 2.56918,-0.938 5.87525,-1.91103 8.66044,-1.97857 1.75997,-0.12022 3.04338,-0.45814 4.88297,-0.96782 l 2.82643,-1.08807 c 0.58452,-0.88738 0.86455,-1.67016 1.07236,-2.6774 l 0.63198,-2.75656 -0.82152,-3.70616 -1.78161,-3.9347 -2.05409,-3.72316 -3.06717,-4.08337 -3.34018,-4.12714 -2.58201,-2.74535 c -0.64729,-0.19179 -1.2015,-0.35695 -2.06074,-0.29787 -0.42764,0.0902 -0.80228,0.2002 -1.17205,0.35489 z" />
      <path
         id="path910"
         style="fill:#000000;stroke:#000000;stroke-width:0.264583px;stroke-linecap:butt;stroke-linejoin:miter;stroke-opacity:1"
         d="m -225.30579,114.39344 -2.92953,0.18604 -2.07998,0.84852 -6.69261,-0.0372 c -1.42201,3.42316 -2.72792,6.88419 -3.91966,10.37973 -5.92345,15.38395 -14.35066,38.23331 -19.24895,47.05086 -0.44658,1.00491 -0.94133,2.08772 -1.47123,3.21532 l 5.78983,2.89491 7.88427,2.80654 7.28328,0.93536 5.54539,-1.13586 7.95146,-0.33435 13.11857,-3.08663 6.15053,-1.05058 2.13837,0.006 3.1378,0.87797 -0.28216,4.87672 -0.47542,2.60448 0.0475,6.41458 -0.27802,3.60754 -0.60719,1.86915 0.12557,2.67269 0.71675,6.08285 0.12454,3.00704 -0.82217,6.74635 -0.50746,13.29531 1.26452,1.67381 4.54287,0.14729 4.21628,-2.2588 -1.25573,-4.54753 -0.18604,-4.81158 -0.78548,-5.48132 0.27595,-2.80551 1.64745,-3.53623 0.3085,-2.57141 0.60617,-1.50172 1.34255,-2.13423 1.48208,-4.0716 0.73691,-0.59891 -0.59273,-2.87478 1.15084,-4.94128 1.72134,5.35057 0.79013,3.87781 1.8619,2.94555 0.25373,1.40354 0.56431,0.61648 1.52135,8.74728 0.67903,6.85385 0.0326,3.4494 0.16226,0.0589 c 1.9359,-3.68051 3.94831,-7.5751 5.94279,-11.55432 l -1.24747,-4.38992 0.65164,-3.93927 1.45211,-5.75366 -0.4191,-1.37202 -0.32969,-0.2377 -0.78342,-4.53875 -0.75551,-3.46956 2.47376,-0.2899 2.17454,-0.75912 3.04891,-1.92444 1.07332,-1.03146 0.83561,-0.0294 1.04076,-1.26506 1.67328,-0.66092 2.38022,-1.89397 0.76274,-0.6604 c 6.69056,-19.30709 8.30108,-22.93729 9.14983,-28.1337 l -18.12447,-7.08018 c -9.62985,1.44834 -18.03382,2.49767 -26.66039,-0.82786 -4.9056,-2.66555 -9.65566,-3.01404 -14.72572,-15.98455 -0.36001,-3.64759 -0.25066,-8.14048 1.81695,-11.56829 l -9.65213,-0.35398 z m -61.54664,93.7607 c -1.69555,1.27312 -3.62823,2.62874 -6.01824,4.25296 -0.79647,0.66948 -0.40399,1.29813 -0.18912,2.22777 2.67375,4.7144 5.43396,9.2075 8.13078,13.33148 l 1.70429,-0.10025 0.37827,-5.76398 -2.64583,-6.80373 -1.32292,-4.06331 z" />
    </g>
    <path
       style="fill:#000000;fill-opacity:1;stroke:#000000;stroke-width:0.132312px;stroke-linecap:butt;stroke-linejoin:miter;stroke-opacity:1"
       d="m 14.797176,101.84528 1.890167,1.79566 2.646231,-0.18902 0.472541,-1.98467 -0.803321,-8.458505 1.417629,-5.339724 0.897826,2.504474 1.18136,2.929759 2.598978,7.088126 3.213282,-0.18902 0.189019,-2.882502 -1.323115,-3.402301 -0.661561,-2.031927 -0.04726,-3.9221 0.236266,-1.181354 -0.0945,-1.134097 0.661555,-2.031933 0.82473,-2.271174 0.735101,-2.238724 0.334136,-1.470203 0.233895,-1.269723 0.233901,0.03341 0.133655,0.935581 0.233895,0.167071 h 0.501206 l 0.167066,0.10024 0.534621,0.03341 0.26731,-0.400966 -0.16707,-1.136067 0.300731,-0.768517 0.13365,-0.133655 0.367546,0.233896 0.26731,1.169482 0.367561,0.233895 0.467791,0.03341 0.133645,-0.534621 -0.200475,-0.868756 0.601446,1.035827 0.568031,-0.03341 0.2339,-0.501206 -0.26731,-0.818639 -0.0167,-1.186185 0.718399,-1.102657 0.501211,-0.03341 1.570448,0.434375 4.94523,2.47262 3.942822,1.403378 3.642107,0.467791 2.77333,-0.568036 3.976248,-0.167066 6.560369,-1.543524 3.075656,-0.525374 1.069237,0.003 1.569138,0.439102 -0.140991,2.438789 -0.237821,1.302428 0.02375,3.207806 -0.139071,1.803933 -0.303551,0.934677 0.06281,1.336748 0.358404,3.041741 0.06231,1.503813 -0.411123,3.373571 -0.253893,6.648603 0.632346,0.83724 2.271924,0.0737 2.10848,-1.12974 -0.628031,-2.274023 -0.093,-2.406085 -0.392714,-2.74112 0.137866,-1.402968 0.82396,-1.768458 0.154233,-1.285975 0.302981,-0.750899 0.671497,-1.067226 0.741222,-2.036019 0.368461,-0.299615 -0.296405,-1.437688 0.575462,-2.4709 0.860716,2.675701 0.395134,1.939194 0.931162,1.473013 0.126949,0.701706 0.282198,0.308377 0.76075,4.374348 0.339566,3.427429 0.01615,1.724867 2.359002,0.8608 2.741126,-0.08264 -1.073433,-3.099825 -1.597542,-5.622087 0.325964,-1.970019 0.726245,-2.877156 -0.209676,-0.686104 -0.164875,-0.118848 -0.39184,-2.269919 -0.377657,-1.735018 1.236957,-0.145007 1.0876,-0.379552 1.524511,-0.962406 0.536857,-0.515588 0.417733,-0.0149 0.520659,-0.63261 0.836792,-0.330516 1.19029,-0.947143 3.052138,-2.643201 0.604906,-0.799316 0.202436,-0.450213 0.871072,-0.530855 0.85848,-1.483205 0.910713,-0.705567 0.380688,-0.612663 1.352465,-1.31727 0.806492,-0.728955 0.803717,-0.09103 0.42886,-0.8251 1.232697,-0.939752 0.759952,-0.894546 0.13991,0.4259 -1.091741,1.129381 0.227059,2.127442 1.222462,1.422931 2.50464,-0.03641 2.03601,-0.936272 0.34306,-2.833794 -1.2693,-1.517645 -0.8027,-0.145242 -0.0919,-0.614708 1.55794,0.337531 3.54423,-0.03191 1.99467,-0.451833 2.52912,-1.08446 4.11294,-1.933543 1.08741,-0.589649 0.89856,-0.778848 1.06338,-0.164385 1.01573,0.237226 0.61435,-0.04666 1.44201,-0.801962 0.89886,-1.085999 0.18939,-0.401486 0.51997,-0.188524 0.56753,-0.495635 0.47361,-1.133652 0.0252,-1.701128 -0.35375,-0.685519 -0.80277,-0.591434 -4.1564,-2.083106 -3.63659,-2.106244 -1.74736,-1.112124 -0.51964,-0.16588 -0.70805,-0.803987 -0.25981,-0.09475 -1.55807,-1.395466 -2.29063,-1.278029 -0.0935,-1.039678 -0.4487,-0.213067 -0.26022,0.330535 -0.16592,0.566891 -0.1888,-0.236446 -0.0937,-0.874292 -0.2363,0.04701 -0.16577,0.401501 -1.44052,-0.781054 -0.21226,-0.401861 -0.023,-0.637951 -0.58954,-1.205538 -0.40108,-0.614683 -0.37785,-0.189374 -0.1657,0.330625 0.30559,1.654181 -0.6849,-0.307797 -0.14183,0.07075 0.25956,0.354654 -0.77969,-10e-4 -0.78045,0.802586 -0.73364,1.275173 -0.0484,1.18131 0.0464,0.874247 -2.69364,0.162845 -1.607315,0.707297 -0.614299,-5e-4 -0.33038,-0.4256 -2.929579,-0.191784 -5.339984,0.278492 -6.709117,-1.045923 -4.346849,-0.571152 -4.253094,0.232261 -5.340299,0.609267 -3.827951,0.374422 -5.292282,-0.19401 -2.409965,-0.0025 -1.464972,0.09312 -1.039983,0.424309 -10.206857,-0.05688 -5.576265,0.278267 -2.456987,-0.238586 -2.267624,-0.616449 -2.267173,-1.088985 -1.889857,-0.33256 -1.748405,-0.0015 -2.032018,0.09259 -3.07143,-0.09741 -3.260669,0.138686 -1.843405,0.518053 -1.228966,0.376878 -1.040343,0.802341 -1.040172,0.613323 -0.898807,1.038742 -0.82811,1.227832 -0.875808,1.700322 -0.545427,2.125927 -0.310472,3.520144 -0.09823,3.945633 -0.194055,5.339544 -0.238856,2.740516 -0.689304,4.370367 -0.8541899,3.826785 -0.996531,4.440953 -0.3319153,1.204673 -1.1355921,1.581939 -0.1898638,0.897656 0.4002107,1.536138 -0.6873692,2.314806 -0.4980405,1.984206 0.66011,1.536383 0.9679517,0.804236 0.9684418,0.284439 0.4272498,-2.078781 0.3556589,-1.322785 -0.4003507,-1.394376 0.023954,-0.330755 0.6147582,-0.471962 0.001,-0.826945 0.4258046,-0.543023 0.5918998,-1.298936 0.0246,-1.039568 -0.282658,-0.921725 1.070018,-7.205257 0.641162,-3.425324 0.475152,-2.763924 0.357479,-3.260199 0.357459,-3.23658 0.121144,-3.189544 0.09576,-1.323025 0.56268,4.631442 0.65788,3.899091 0.704917,4.135411 0.65982,1.843535 0.139176,2.740875 -0.120633,2.646121 -0.876478,2.40914 -1.799243,3.802267 -0.615533,1.298906 -0.09513,0.661471 0.188214,0.850754 0.471962,0.614748 0.658414,3.332045 0.422794,2.646631 -0.02675,3.3314 0.114278,4.087594 z"
       id="path24" />
    <path
       id="path863"
       style="fill:#c91515;fill-opacity:1;stroke:#000000;stroke-width:0.0938957px;stroke-linecap:butt;stroke-linejoin:miter;stroke-opacity:1"
       d="m 84.115242,4.9825405 c -0.184873,0.077487 -0.367476,0.1770719 -0.571647,0.3121023 -6.292463,3.6974304 -10.8871,7.5920202 -16.180972,13.2304302 -4.928012,4.955761 -9.423763,12.141205 -11.955612,16.952229 -2.395138,4.349208 -4.368067,8.848955 -5.943366,13.46952 -2.962174,7.693141 -7.176483,19.119578 -9.625999,23.529026 -1.943049,4.372368 -5.522222,11.453501 -9.711812,14.520216 l -0.0015,5e-4 c -1.94416,1.945525 -3.512297,3.152118 -6.636136,5.275074 -0.398305,0.334796 -0.202265,0.649279 -0.09482,1.114164 4.507318,7.947418 9.517027,14.690498 12.083851,17.038128 0,0 7.664402,7.46557 10.003907,8.98495 2.339499,1.51937 11.908859,7.61496 13.316978,8.07569 1.408123,0.46073 13.846368,-19.08265 13.846368,-19.08265 0,0 11.859563,-20.742081 15.650627,-31.742653 C 92.08617,65.6587 92.917666,63.899068 93.363423,61.169945 L 84.2997,57.629408 c -4.815655,0.72428 -9.018212,1.248979 -13.332151,-0.414038 -2.453172,-1.332977 -4.828597,-1.507233 -7.364011,-7.993471 -0.190599,-1.931143 -0.118708,-4.336437 1.100447,-6.081497 1.279199,-1.778649 3.654474,-3.083222 4.555425,-3.823344 0.540742,-0.741628 0.898141,-1.309149 1.024211,-2.095268 l 0.474726,-3.247276 c 0.730466,-2.052056 1.834253,-4.413873 3.20006,-6.070139 2.065969,-2.563689 4.958302,-5.576076 9.391019,-7.012133 0.06538,-0.015 0.121918,-0.025 0.167245,-0.04156 1.284785,-0.469071 2.93807,-0.955659 4.330876,-0.989434 0.880119,-0.06012 1.521921,-0.229105 2.441856,-0.483984 l 1.413429,-0.544117 c 0.292304,-0.443758 0.43234,-0.835207 0.536261,-1.338903 l 0.316038,-1.378489 -0.410822,-1.853361 -0.89094,-1.967648 -1.027201,-1.861862 -1.533818,-2.0419949 -1.670343,-2.0638828 -1.2912,-1.3728831 c -0.323694,-0.09591 -0.600841,-0.178502 -1.030527,-0.1489575 -0.213852,0.045107 -0.4012,0.1001151 -0.586113,0.1774719 z" />
    <path
       id="path880"
       style="fill:#ffffff;stroke:#c91515;stroke-width:0.532;stroke-linecap:butt;stroke-linejoin:miter;stroke-opacity:1;stroke-miterlimit:4;stroke-dasharray:none"
       d="m 57.275639,43.257475 -1.464987,0.09303 -1.040148,0.424324 -3.346812,-0.0186 c -0.711113,1.71184 -1.364167,3.442617 -1.960127,5.190652 -2.962174,7.693141 -7.176418,19.119553 -9.625934,23.528996 -0.223324,0.502531 -0.470736,1.044018 -0.735726,1.607904 l 2.895354,1.447674 3.942732,1.403483 3.642192,0.467751 2.773115,-0.568016 3.976333,-0.167201 6.560279,-1.543549 3.075731,-0.525369 1.069347,0.003 1.569138,0.439052 -0.141101,2.438729 -0.237746,1.302438 0.02375,3.207776 -0.139031,1.804043 -0.303641,0.934717 0.0628,1.336548 0.358429,3.041886 0.06228,1.503748 -0.411148,3.373686 -0.253768,6.648663 0.632356,0.83703 2.271779,0.0737 2.10846,-1.12957 -0.627961,-2.274113 -0.09303,-2.406155 -0.392799,-2.741075 0.137996,-1.402968 0.82385,-1.768383 0.154273,-1.2859 0.303131,-0.750974 0.671377,-1.067277 0.741152,-2.036108 0.368511,-0.2995 -0.29641,-1.437608 0.575507,-2.471015 0.860801,2.675691 0.395124,1.939199 0.931092,1.472998 0.126884,0.701876 0.282198,0.308287 0.76079,4.374303 0.339566,3.427444 0.0163,1.724962 0.08114,0.02945 c 0.968097,-1.840534 1.974454,-3.788124 2.971846,-5.778036 l -0.62383,-2.195292 0.325869,-1.969934 0.726165,-2.877266 -0.209581,-0.686114 -0.16487,-0.118868 -0.39177,-2.269719 -0.377812,-1.735043 1.237067,-0.144972 1.087435,-0.379617 1.524686,-0.962366 0.536742,-0.515808 0.417868,-0.0147 0.520459,-0.632625 0.836767,-0.330511 1.19029,-0.947128 0.381428,-0.33025 c 3.345787,-9.655008 4.151169,-11.470384 4.575608,-14.068982 L 84.299796,57.629276 C 79.484141,58.353556 75.281519,58.8783 70.96758,57.215283 68.514408,55.882306 66.139018,55.708035 63.603604,49.221797 63.423572,47.397725 63.478255,45.15094 64.512217,43.436775 L 59.685419,43.25972 Z M 26.497654,90.144931 c -0.847903,0.636656 -1.81439,1.314569 -3.009576,2.126802 -0.398295,0.334791 -0.202025,0.649164 -0.09457,1.114054 1.337078,2.357557 2.717392,4.604448 4.066006,6.666753 l 0.852274,-0.0501 0.189164,-2.882422 -1.323115,-3.402381 -0.661561,-2.031962 z" />
  </g>
</svg>
