<?xml version="1.0" encoding="UTF-8" standalone="no"?>
<svg
   xmlns:dc="http://purl.org/dc/elements/1.1/"
   xmlns:cc="http://creativecommons.org/ns#"
   xmlns:rdf="http://www.w3.org/1999/02/22-rdf-syntax-ns#"
   xmlns:svg="http://www.w3.org/2000/svg"
   xmlns="http://www.w3.org/2000/svg"
   width="560.44397"
   height="380.646"
   viewBox="0 0 148.28397 100.71257"
   version="1.1"
   id="svg8">
  <defs
     id="defs2">
    <filter
       style="color-interpolation-filters:sRGB"
       id="filter1124"
       x="-0.1063205"
       width="1.212641"
       y="-0.16563813"
       height="1.3312763">
      <feGaussianBlur
         stdDeviation="1.9725489"
         id="feGaussianBlur1126" />
    </filter>
  </defs>
  <metadata
     id="metadata5">
    <rdf:RDF>
      <cc:Work
         rdf:about="">
        <dc:format>image/svg+xml</dc:format>
        <dc:type
           rdf:resource="http://purl.org/dc/dcmitype/StillImage" />
        <dc:title></dc:title>
      </cc:Work>
    </rdf:RDF>
  </metadata>
  <g
     id="layer1">
    <g
       id="g1144"
       transform="translate(7.996206,-15.789535)">
      <g
         id="g954"
         transform="matrix(3.0331151,0,0,3.0331151,-884.85992,-555.57101)"
         style="fill:#000000;filter:url(#filter1124)">
        <path
           style="fill:#000000;fill-opacity:1;stroke-width:0.0846667"
           d="m 333.96406,193.91256 c -0.0632,-0.006 -0.0909,0.0316 -0.13745,0.10748 -0.46445,0.75706 -0.51457,0.79443 -1.12708,0.83303 -0.40042,0.0252 -0.83886,0.13669 -1.42523,0.36225 -0.48262,0.18564 -1.05576,0.34212 -1.33326,0.36432 -0.56899,0.0455 -0.61426,0.14995 -0.21188,0.4904 0.15134,0.12806 0.26638,0.26336 0.2553,0.30076 -0.0111,0.0374 0.0325,0.0481 0.0971,0.0233 0.25361,-0.0973 0.21209,0.1555 -0.10181,0.62115 -0.18103,0.26854 -0.64264,1.00226 -1.02576,1.63091 -0.86357,1.41697 -1.23407,1.93853 -1.82007,2.56056 l -0.45887,0.48731 0.23614,0.61392 c 0.37547,0.97543 0.46437,1.52432 0.45839,2.81533 -0.005,1.07101 -0.12456,1.97948 -0.33176,2.51871 -0.085,0.22111 -0.0244,0.1865 0.42373,-0.24288 0.62106,-0.59507 1.20796,-0.83604 2.03502,-0.83612 0.58232,-6e-5 0.74451,0.0342 1.15705,0.24649 l 0.48006,0.24701 0.38087,-0.14521 c 0.66648,-0.25453 1.4157,-1.03379 1.40869,-1.46606 -0.001,-0.0838 -0.13353,-0.24789 -0.29353,-0.36432 -0.28932,-0.2105 -0.55086,-0.69489 -0.55086,-1.02009 0,-0.27604 0.21736,-0.71616 0.47749,-0.96686 0.22752,-0.21924 1.51689,-0.89142 1.70998,-0.89142 0.0486,0 0.10753,-0.0307 0.13073,-0.0682 0.10589,-0.17132 0.48099,-2.01879 0.53848,-2.65152 l 0.0641,-0.70435 0.40254,0.0253 c 0.22119,0.0137 0.40206,0.006 0.40206,-0.0171 0,-0.0229 -0.0697,-0.20699 -0.15505,-0.40876 -0.0853,-0.20177 -0.26304,-0.76679 -0.39478,-1.25574 -0.224,-0.8312 -0.51689,-1.41886 -0.84026,-1.68724 -0.18709,-0.15523 -0.16802,-0.34734 0.078,-0.78755 l 0.21238,-0.37982 -0.39066,-0.20257 c -0.18811,-0.0975 -0.28667,-0.14661 -0.34985,-0.15244 z"
           id="path940" />
        <path
           style="fill:#000000;fill-opacity:1;stroke-width:0.0846667"
           d="m 334.57178,203.2479 c -0.16621,-0.0169 -0.4232,0.085 -0.82114,0.26097 -0.56848,0.25138 -0.74083,0.49116 -0.52453,0.73019 0.0797,0.0881 0.20785,0.18023 0.28474,0.20463 0.23842,0.0757 0.43048,0.50757 0.43048,0.9679 0,0.24721 -0.038,0.4315 -0.0894,0.4315 -0.0494,0 -0.0666,0.0373 -0.0383,0.0832 0.0781,0.1263 -0.32608,0.76129 -0.73586,1.156 -0.41508,0.39982 -1.34779,0.92439 -1.79163,1.00769 -0.24394,0.0458 -0.38637,0.007 -0.7648,-0.2098 -1.01852,-0.58273 -1.66685,-0.42656 -2.7709,0.66714 -0.37881,0.37527 -0.71941,0.68213 -0.75653,0.68213 -0.0373,0 -0.11835,0.0499 -0.17983,0.11059 -0.0616,0.0607 -0.37841,0.28194 -0.70435,0.49196 -3.80199,2.4496 -8.50929,3.40954 -12.34604,2.51767 -0.41058,-0.0955 -0.75502,-0.16048 -0.76531,-0.14417 -0.1611,0.25373 -0.5678,1.45445 -0.5111,1.50895 0.18553,0.17833 1.49202,0.92299 2.10789,1.20147 1.08111,0.48886 2.526,0.86353 3.97909,1.03198 0.88562,0.10266 3.21771,0.0409 4.23334,-0.11214 2.19125,-0.33016 4.58724,-1.17527 6.32261,-2.23087 0.41603,-0.25311 0.7057,-0.3773 0.8046,-0.3452 0.1207,0.0391 0.12803,0.0312 0.0346,-0.0351 -0.0938,-0.0667 -0.0172,-0.15018 0.3571,-0.38963 0.26218,-0.16772 0.52578,-0.29529 0.58547,-0.28319 0.0596,0.0122 0.0992,-0.0245 0.0879,-0.0816 -0.0113,-0.0571 0.26075,-0.33825 0.6041,-0.62477 0.52581,-0.4388 0.64812,-0.59176 0.77668,-0.96997 0.15021,-0.44189 0.12589,-0.8252 -0.0837,-1.31723 -0.0346,-0.0812 -0.002,-0.19384 0.0796,-0.27544 0.0758,-0.0758 0.10906,-0.13797 0.0744,-0.13797 -0.0347,0 0.0249,-0.0934 0.1323,-0.20774 0.10736,-0.1143 0.22291,-0.20068 0.2563,-0.19069 0.0904,0.0259 1.14673,-1.23858 1.41025,-1.68826 0.4858,-0.82895 0.6232,-1.38569 0.6232,-2.52543 0,-0.89821 -0.0242,-1.25657 -0.30125,-1.28468 z"
           id="path942" />
        <path
           style="fill:#000000;fill-opacity:1;stroke-width:0.0846667"
           d="m 320.62792,197.09169 c -0.0503,-0.006 -0.10012,0.005 -0.15039,0.0315 -0.24519,0.13122 -0.80087,0.85378 -1.10691,1.43867 -0.1583,0.30268 -0.29676,0.56493 -0.30747,0.58343 -0.0107,0.0185 -0.16341,-0.061 -0.33899,-0.17673 -1.45349,-0.9582 -3.42461,-0.97782 -5.33043,-0.0532 -0.92281,0.4477 -0.93853,0.47189 -0.61597,0.94981 0.14467,0.21439 0.29321,0.38964 0.3302,0.38964 0.037,0 0.15885,-0.0717 0.2708,-0.15968 0.23847,-0.1876 1.00457,-0.62395 1.00457,-0.57205 0,0.0196 -0.16367,0.20202 -0.3638,0.40514 -0.20011,0.20311 -0.43318,0.48657 -0.51779,0.62994 -0.1423,0.24109 -0.14367,0.27996 -0.0202,0.51882 1.13432,2.19355 1.22914,5.40091 0.25892,8.77311 -0.15851,0.55089 -0.28837,1.05473 -0.28837,1.11983 0,0.26269 0.54443,0.45497 1.78128,0.6289 0.72752,0.1023 2.88726,0.0344 3.89744,-0.12247 1.59626,-0.24787 3.45046,-0.86712 5.02037,-1.67742 1.14061,-0.58872 1.19586,-0.65107 1.6955,-1.90066 0.67373,-1.68502 0.7107,-3.58068 0.10181,-5.20174 -0.16153,-0.43008 -0.27091,-0.8185 -0.24339,-0.863 0.0275,-0.0444 0.0104,-0.0566 -0.0377,-0.0269 -0.0481,0.0297 -0.19256,-0.10499 -0.32144,-0.29973 -0.27485,-0.41533 -0.96253,-1.16737 -1.06762,-1.16737 -0.0401,0 -0.25413,-0.12887 -0.47543,-0.28629 -0.95859,-0.68184 -1.82867,-0.9331 -3.0484,-0.88159 -0.56054,0.0237 -0.7829,0.005 -0.7829,-0.0661 0,-0.24401 0.27927,-0.84959 0.60875,-1.3193 0.34087,-0.48594 0.35118,-0.5178 0.20207,-0.62684 -0.0534,-0.0391 -0.10417,-0.0618 -0.15452,-0.0677 z"
           id="path944" />
        <path
           id="path946"
           style="fill:#000000;fill-opacity:1;stroke-width:0.32"
           d="m 1262.2266,732.89844 c -0.2389,-0.0227 -0.3436,0.11946 -0.5196,0.40625 -1.7554,2.86133 -1.9447,3.00255 -4.2597,3.14843 -1.5134,0.0952 -3.1706,0.51664 -5.3868,1.36915 -1.824,0.70163 -3.9902,1.29304 -5.039,1.37695 -1.3067,0.10449 -1.8736,0.2938 -1.7832,0.71289 l 0.014,0.0586 c 0.091,0.26439 0.4145,0.61311 0.9687,1.08203 0.572,0.48401 1.0067,0.99537 0.9648,1.13672 -0.042,0.14136 0.1231,0.18163 0.3672,0.0879 0.2882,-0.11054 0.4619,-0.0891 0.5508,0.0254 l 0.1113,-0.0703 c 2.9762,-0.23811 -0.8386,2.23935 8.9278,-0.71484 -1.076,3.13478 -1.2712,5.74873 -0.5762,9.97265 3.3586,-1.7467 4.5208,-3.3676 5.4297,-6.5664 0.9971,2.18732 0.8126,5.21909 4.1445,6.36523 l 1.5215,0.0957 c 0.836,0.0518 1.5195,0.0228 1.5195,-0.0645 0,-0.0865 -0.2633,-0.78232 -0.5859,-1.54492 -0.3224,-0.76259 -0.9943,-2.89809 -1.4922,-4.74609 -0.8466,-3.14155 -1.9536,-5.36261 -3.1758,-6.37696 -0.7071,-0.58669 -0.6349,-1.31277 0.295,-2.97656 l 0.8027,-1.43555 -1.4766,-0.76562 c -0.7109,-0.3685 -1.0834,-0.55414 -1.3222,-0.57617 z"
           transform="scale(0.26458333)" />
        <path
           style="fill:#000000;fill-opacity:1;stroke-width:0.0846667"
           d="m 302.99127,190.68795 c -0.0244,0.008 -0.0377,0.0501 -0.0377,0.12712 0,0.0699 -0.0329,0.12661 -0.0729,0.12661 -0.04,0 -0.16734,0.18137 -0.28318,0.40256 -0.11583,0.22119 -0.37833,0.70698 -0.58343,1.07952 -0.36796,0.66833 -0.94597,1.87996 -1.37716,2.88664 -0.39444,0.92084 -0.96395,2.76391 -1.2015,3.88865 -0.30562,1.44707 -0.38423,3.71489 -0.17155,4.95112 0.12922,0.7511 0.61888,2.53005 0.72244,2.62465 0.0255,0.0233 0.1551,0.27095 0.28834,0.55035 0.32168,0.67455 1.14912,1.9016 1.73789,2.57711 0.26131,0.29982 0.47705,0.58518 0.47903,0.63458 0.002,0.0495 0.0423,0.0834 0.0894,0.0744 0.0471,-0.009 0.35052,0.232 0.67387,0.53485 0.53951,0.50497 0.56692,0.54704 0.33383,0.50694 -1.31694,-0.22639 -2.03756,-0.20462 -5.08032,0.15452 -1.45095,0.1709 -3.45813,0.1706 -4.36563,-0.002 -0.8193,-0.15542 -1.93111,-0.49418 -2.3926,-0.72864 -0.60375,-0.30672 -0.61772,-0.19938 -0.10646,0.84129 0.7584,1.54377 1.59596,2.74869 2.6417,3.80029 1.1552,1.16168 1.79229,1.72341 1.9544,1.72341 0.0693,0 0.22728,0.069 0.35089,0.15347 1.11575,0.76231 3.25072,1.42598 5.21983,1.62264 v 5.2e-4 c 0.4191,0.0423 1.40978,0.06 2.20141,0.0403 1.45585,-0.0363 3.99093,-0.31311 4.12843,-0.45062 0.0432,-0.0432 -0.16872,-0.12002 -0.50281,-0.18242 -1.12824,-0.21056 -3.90248,-1.07871 -4.58627,-1.43505 -0.0769,-0.0401 -0.49358,-0.24615 -0.92604,-0.45837 -0.87778,-0.43074 -1.71153,-0.95731 -1.71153,-1.08107 0,-0.0447 0.10451,-0.0267 0.23254,0.0403 1.15176,0.60225 3.84,1.32203 5.47769,1.46658 l 0.59741,0.0527 -0.77103,-0.79478 c -0.70236,-0.72401 -1.05465,-1.17512 -0.91778,-1.17512 0.0291,0 0.30631,0.11766 0.6165,0.26199 2.62766,1.22252 3.72415,1.60342 5.71439,1.98386 1.71009,0.32688 3.50986,0.43352 5.11234,0.30334 1.82779,-0.14849 3.92038,-0.54632 4.70773,-0.89503 0.25162,-0.1114 0.2272,-0.1156 -0.36534,-0.0615 -1.12382,0.10256 -4.72792,0.0653 -5.5454,-0.0574 -0.88083,-0.13217 -2.7531,-0.54991 -3.33005,-0.7431 -0.58203,-0.1949 -1.78477,-0.68611 -2.1735,-0.88781 -0.18626,-0.0966 -0.51416,-0.26834 -0.72863,-0.38137 -0.45143,-0.23789 -1.18862,-0.97866 -1.78388,-1.79214 -0.22844,-0.3122 -0.47056,-0.6338 -0.53795,-0.7152 -0.40677,-0.49098 -1.67335,-2.87719 -1.93579,-3.6468 -0.0664,-0.19475 -0.19953,-0.55368 -0.29613,-0.79789 -0.37102,-0.93836 -0.90937,-3.15648 -1.10482,-4.55166 -0.0522,-0.37253 -0.11599,-0.7725 -0.1416,-0.88883 -0.11356,-0.5163 0.09,-0.0154 0.34986,0.86041 1.04994,3.53913 2.66433,6.30698 5.12733,8.79171 0.81756,0.82477 2.20991,2.03192 2.34405,2.03192 0.0664,0 0.25421,-0.42149 0.94258,-2.11667 0.32972,-0.81203 0.85026,-2.54656 1.0795,-3.59823 0.18002,-0.82582 0.2291,-1.31346 0.26202,-2.60553 0.0387,-1.52255 0.0301,-1.6301 -0.19431,-2.54041 -0.56291,-2.28292 -1.67281,-3.82638 -4.35581,-6.05751 -2.64898,-2.20283 -4.23334,-3.69562 -4.23334,-3.98839 0,-0.0499 -0.0343,-0.0909 -0.076,-0.0909 -0.10295,0 -0.79425,-1.12002 -1.11725,-1.81022 -0.15643,-0.33432 -0.2794,-0.52694 -0.34984,-0.55759 -0.0106,-0.005 -0.0198,-0.005 -0.0279,-0.003 z"
           id="path948" />
        <path
           id="path950"
           style="fill:#000000;fill-opacity:1;stroke-width:0.0846667"
           d="m 334.57176,203.24799 c -0.16621,-0.0169 -0.4232,0.085 -0.82113,0.26096 -0.56849,0.25138 -0.74081,0.49116 -0.52451,0.73019 0.0797,0.0881 0.20785,0.18024 0.28474,0.20464 0.23842,0.0757 0.43045,0.50757 0.43045,0.9679 0,0.24721 -0.038,0.4315 -0.0894,0.4315 -0.0494,0 -0.0665,0.0373 -0.0382,0.0832 0.0781,0.1263 -0.3261,0.76129 -0.73589,1.156 -0.41508,0.39982 -1.34776,0.92439 -1.7916,1.00769 -0.047,0.009 -0.0884,0.011 -0.13023,0.0129 l -0.005,0.006 -1.55906,1.03922 1.18081,-0.23616 -0.37777,1.13429 1.08675,-0.47283 0.28321,1.18132 0.37824,-1.22835 0.14108,-0.03 c -0.003,-0.0707 0.0302,-0.15112 0.0925,-0.21343 0.0758,-0.0758 0.10906,-0.13797 0.0744,-0.13797 -0.0347,0 0.0249,-0.0934 0.13229,-0.20774 0.10737,-0.1143 0.22294,-0.20068 0.25633,-0.19069 0.0904,0.0259 1.14673,-1.23859 1.41023,-1.68827 0.4858,-0.82895 0.62322,-1.38569 0.62322,-2.52542 0,-0.89821 -0.0242,-1.25657 -0.30128,-1.28468 z" />
        <path
           id="path952"
           style="fill:#000000;fill-opacity:1;stroke-width:0.0846667"
           d="m 320.62792,197.09169 c -0.0503,-0.006 -0.10011,0.005 -0.15038,0.0315 -0.24519,0.13122 -0.80087,0.85378 -1.10691,1.43867 -0.1583,0.30268 -0.29676,0.56493 -0.30747,0.58343 -0.002,0.004 -0.014,0.002 -0.03,-0.003 v 0 c -0.61499,-0.42056 -0.96138,-0.54411 -1.40763,-0.6899 -0.44706,-0.13934 -0.92101,-0.21198 -1.4118,-0.21549 l 1.97094,1.31361 -1.43661,1.16892 2.23811,-0.83509 1.60404,1.73736 -0.70177,-2.00453 1.99471,-0.38602 c -0.0523,-0.008 -0.10522,-0.016 -0.15865,-0.0227 -0.31518,-0.0789 -0.66155,-0.0485 -1.02991,-0.0351 -0.37114,0.014 -0.58687,0.008 -0.67334,-0.0227 l -0.0326,-0.001 0.0119,-0.009 c -0.0177,-0.01 -0.0289,-0.0213 -0.0289,-0.0351 0,-0.24401 0.27927,-0.84959 0.60875,-1.3193 0.34087,-0.48594 0.35116,-0.5178 0.20205,-0.62684 -0.0534,-0.0391 -0.10416,-0.0618 -0.15451,-0.0677 z" />
      </g>
      <g
         id="g938"
         transform="matrix(2.8759175,0,0,2.8759175,-835.57203,-523.34923)">
        <path
           style="fill:#784178;fill-opacity:1;stroke-width:0.0846667"
           d="m 333.96406,193.91256 c -0.0632,-0.006 -0.0909,0.0316 -0.13745,0.10748 -0.46445,0.75706 -0.51457,0.79443 -1.12708,0.83303 -0.40042,0.0252 -0.83886,0.13669 -1.42523,0.36225 -0.48262,0.18564 -1.05576,0.34212 -1.33326,0.36432 -0.56899,0.0455 -0.61426,0.14995 -0.21188,0.4904 0.15134,0.12806 0.26638,0.26336 0.2553,0.30076 -0.0111,0.0374 0.0325,0.0481 0.0971,0.0233 0.25361,-0.0973 0.21209,0.1555 -0.10181,0.62115 -0.18103,0.26854 -0.64264,1.00226 -1.02576,1.63091 -0.86357,1.41697 -1.23407,1.93853 -1.82007,2.56056 l -0.45887,0.48731 0.23614,0.61392 c 0.37547,0.97543 0.46437,1.52432 0.45839,2.81533 -0.005,1.07101 -0.12456,1.97948 -0.33176,2.51871 -0.085,0.22111 -0.0244,0.1865 0.42373,-0.24288 0.62106,-0.59507 1.20796,-0.83604 2.03502,-0.83612 0.58232,-6e-5 0.74451,0.0342 1.15705,0.24649 l 0.48006,0.24701 0.38087,-0.14521 c 0.66648,-0.25453 1.4157,-1.03379 1.40869,-1.46606 -0.001,-0.0838 -0.13353,-0.24789 -0.29353,-0.36432 -0.28932,-0.2105 -0.55086,-0.69489 -0.55086,-1.02009 0,-0.27604 0.21736,-0.71616 0.47749,-0.96686 0.22752,-0.21924 1.51689,-0.89142 1.70998,-0.89142 0.0486,0 0.10753,-0.0307 0.13073,-0.0682 0.10589,-0.17132 0.48099,-2.01879 0.53848,-2.65152 l 0.0641,-0.70435 0.40254,0.0253 c 0.22119,0.0137 0.40206,0.006 0.40206,-0.0171 0,-0.0229 -0.0697,-0.20699 -0.15505,-0.40876 -0.0853,-0.20177 -0.26304,-0.76679 -0.39478,-1.25574 -0.224,-0.8312 -0.51689,-1.41886 -0.84026,-1.68724 -0.18709,-0.15523 -0.16802,-0.34734 0.078,-0.78755 l 0.21238,-0.37982 -0.39066,-0.20257 c -0.18811,-0.0975 -0.28667,-0.14661 -0.34985,-0.15244 z"
           id="path928" />
        <path
           style="fill:#e31c21;fill-opacity:1;stroke-width:0.0846667"
           d="m 334.57178,203.2479 c -0.16621,-0.0169 -0.4232,0.085 -0.82114,0.26097 -0.56848,0.25138 -0.74083,0.49116 -0.52453,0.73019 0.0797,0.0881 0.20785,0.18023 0.28474,0.20463 0.23842,0.0757 0.43048,0.50757 0.43048,0.9679 0,0.24721 -0.038,0.4315 -0.0894,0.4315 -0.0494,0 -0.0666,0.0373 -0.0383,0.0832 0.0781,0.1263 -0.32608,0.76129 -0.73586,1.156 -0.41508,0.39982 -1.34779,0.92439 -1.79163,1.00769 -0.24394,0.0458 -0.38637,0.007 -0.7648,-0.2098 -1.01852,-0.58273 -1.66685,-0.42656 -2.7709,0.66714 -0.37881,0.37527 -0.71941,0.68213 -0.75653,0.68213 -0.0373,0 -0.11835,0.0499 -0.17983,0.11059 -0.0616,0.0607 -0.37841,0.28194 -0.70435,0.49196 -3.80199,2.4496 -8.50929,3.40954 -12.34604,2.51767 -0.41058,-0.0955 -0.75502,-0.16048 -0.76531,-0.14417 -0.1611,0.25373 -0.5678,1.45445 -0.5111,1.50895 0.18553,0.17833 1.49202,0.92299 2.10789,1.20147 1.08111,0.48886 2.526,0.86353 3.97909,1.03198 0.88562,0.10266 3.21771,0.0409 4.23334,-0.11214 2.19125,-0.33016 4.58724,-1.17527 6.32261,-2.23087 0.41603,-0.25311 0.7057,-0.3773 0.8046,-0.3452 0.1207,0.0391 0.12803,0.0312 0.0346,-0.0351 -0.0938,-0.0667 -0.0172,-0.15018 0.3571,-0.38963 0.26218,-0.16772 0.52578,-0.29529 0.58547,-0.28319 0.0596,0.0122 0.0992,-0.0245 0.0879,-0.0816 -0.0113,-0.0571 0.26075,-0.33825 0.6041,-0.62477 0.52581,-0.4388 0.64812,-0.59176 0.77668,-0.96997 0.15021,-0.44189 0.12589,-0.8252 -0.0837,-1.31723 -0.0346,-0.0812 -0.002,-0.19384 0.0796,-0.27544 0.0758,-0.0758 0.10906,-0.13797 0.0744,-0.13797 -0.0347,0 0.0249,-0.0934 0.1323,-0.20774 0.10736,-0.1143 0.22291,-0.20068 0.2563,-0.19069 0.0904,0.0259 1.14673,-1.23858 1.41025,-1.68826 0.4858,-0.82895 0.6232,-1.38569 0.6232,-2.52543 0,-0.89821 -0.0242,-1.25657 -0.30125,-1.28468 z"
           id="path91" />
        <path
           style="fill:#e43b24;fill-opacity:1;stroke-width:0.0846667"
           d="m 320.62792,197.09169 c -0.0503,-0.006 -0.10012,0.005 -0.15039,0.0315 -0.24519,0.13122 -0.80087,0.85378 -1.10691,1.43867 -0.1583,0.30268 -0.29676,0.56493 -0.30747,0.58343 -0.0107,0.0185 -0.16341,-0.061 -0.33899,-0.17673 -1.45349,-0.9582 -3.42461,-0.97782 -5.33043,-0.0532 -0.92281,0.4477 -0.93853,0.47189 -0.61597,0.94981 0.14467,0.21439 0.29321,0.38964 0.3302,0.38964 0.037,0 0.15885,-0.0717 0.2708,-0.15968 0.23847,-0.1876 1.00457,-0.62395 1.00457,-0.57205 0,0.0196 -0.16367,0.20202 -0.3638,0.40514 -0.20011,0.20311 -0.43318,0.48657 -0.51779,0.62994 -0.1423,0.24109 -0.14367,0.27996 -0.0202,0.51882 1.13432,2.19355 1.22914,5.40091 0.25892,8.77311 -0.15851,0.55089 -0.28837,1.05473 -0.28837,1.11983 0,0.26269 0.54443,0.45497 1.78128,0.6289 0.72752,0.1023 2.88726,0.0344 3.89744,-0.12247 1.59626,-0.24787 3.45046,-0.86712 5.02037,-1.67742 1.14061,-0.58872 1.19586,-0.65107 1.6955,-1.90066 0.67373,-1.68502 0.7107,-3.58068 0.10181,-5.20174 -0.16153,-0.43008 -0.27091,-0.8185 -0.24339,-0.863 0.0275,-0.0444 0.0104,-0.0566 -0.0377,-0.0269 -0.0481,0.0297 -0.19256,-0.10499 -0.32144,-0.29973 -0.27485,-0.41533 -0.96253,-1.16737 -1.06762,-1.16737 -0.0401,0 -0.25413,-0.12887 -0.47543,-0.28629 -0.95859,-0.68184 -1.82867,-0.9331 -3.0484,-0.88159 -0.56054,0.0237 -0.7829,0.005 -0.7829,-0.0661 0,-0.24401 0.27927,-0.84959 0.60875,-1.3193 0.34087,-0.48594 0.35118,-0.5178 0.20207,-0.62684 -0.0534,-0.0391 -0.10417,-0.0618 -0.15452,-0.0677 z"
           id="path89" />
        <path
           id="path87"
           style="fill:#2a9602;fill-opacity:1;stroke-width:0.32"
           d="m 1262.2266,732.89844 c -0.2389,-0.0227 -0.3436,0.11946 -0.5196,0.40625 -1.7554,2.86133 -1.9447,3.00255 -4.2597,3.14843 -1.5134,0.0952 -3.1706,0.51664 -5.3868,1.36915 -1.824,0.70163 -3.9902,1.29304 -5.039,1.37695 -1.3067,0.10449 -1.8736,0.2938 -1.7832,0.71289 l 0.014,0.0586 c 0.091,0.26439 0.4145,0.61311 0.9687,1.08203 0.572,0.48401 1.0067,0.99537 0.9648,1.13672 -0.042,0.14136 0.1231,0.18163 0.3672,0.0879 0.2882,-0.11054 0.4619,-0.0891 0.5508,0.0254 l 0.1113,-0.0703 c 2.9762,-0.23811 -0.8386,2.23935 8.9278,-0.71484 -1.076,3.13478 -1.2712,5.74873 -0.5762,9.97265 3.3586,-1.7467 4.5208,-3.3676 5.4297,-6.5664 0.9971,2.18732 0.8126,5.21909 4.1445,6.36523 l 1.5215,0.0957 c 0.836,0.0518 1.5195,0.0228 1.5195,-0.0645 0,-0.0865 -0.2633,-0.78232 -0.5859,-1.54492 -0.3224,-0.76259 -0.9943,-2.89809 -1.4922,-4.74609 -0.8466,-3.14155 -1.9536,-5.36261 -3.1758,-6.37696 -0.7071,-0.58669 -0.6349,-1.31277 0.295,-2.97656 l 0.8027,-1.43555 -1.4766,-0.76562 c -0.7109,-0.3685 -1.0834,-0.55414 -1.3222,-0.57617 z"
           transform="scale(0.26458333)" />
        <path
           style="fill:#9dce34;fill-opacity:1;stroke-width:0.0846667"
           d="m 302.99127,190.68795 c -0.0244,0.008 -0.0377,0.0501 -0.0377,0.12712 0,0.0699 -0.0329,0.12661 -0.0729,0.12661 -0.04,0 -0.16734,0.18137 -0.28318,0.40256 -0.11583,0.22119 -0.37833,0.70698 -0.58343,1.07952 -0.36796,0.66833 -0.94597,1.87996 -1.37716,2.88664 -0.39444,0.92084 -0.96395,2.76391 -1.2015,3.88865 -0.30562,1.44707 -0.38423,3.71489 -0.17155,4.95112 0.12922,0.7511 0.61888,2.53005 0.72244,2.62465 0.0255,0.0233 0.1551,0.27095 0.28834,0.55035 0.32168,0.67455 1.14912,1.9016 1.73789,2.57711 0.26131,0.29982 0.47705,0.58518 0.47903,0.63458 0.002,0.0495 0.0423,0.0834 0.0894,0.0744 0.0471,-0.009 0.35052,0.232 0.67387,0.53485 0.53951,0.50497 0.56692,0.54704 0.33383,0.50694 -1.31694,-0.22639 -2.03756,-0.20462 -5.08032,0.15452 -1.45095,0.1709 -3.45813,0.1706 -4.36563,-0.002 -0.8193,-0.15542 -1.93111,-0.49418 -2.3926,-0.72864 -0.60375,-0.30672 -0.61772,-0.19938 -0.10646,0.84129 0.7584,1.54377 1.59596,2.74869 2.6417,3.80029 1.1552,1.16168 1.79229,1.72341 1.9544,1.72341 0.0693,0 0.22728,0.069 0.35089,0.15347 1.11575,0.76231 3.25072,1.42598 5.21983,1.62264 v 5.2e-4 c 0.4191,0.0423 1.40978,0.06 2.20141,0.0403 1.45585,-0.0363 3.99093,-0.31311 4.12843,-0.45062 0.0432,-0.0432 -0.16872,-0.12002 -0.50281,-0.18242 -1.12824,-0.21056 -3.90248,-1.07871 -4.58627,-1.43505 -0.0769,-0.0401 -0.49358,-0.24615 -0.92604,-0.45837 -0.87778,-0.43074 -1.71153,-0.95731 -1.71153,-1.08107 0,-0.0447 0.10451,-0.0267 0.23254,0.0403 1.15176,0.60225 3.84,1.32203 5.47769,1.46658 l 0.59741,0.0527 -0.77103,-0.79478 c -0.70236,-0.72401 -1.05465,-1.17512 -0.91778,-1.17512 0.0291,0 0.30631,0.11766 0.6165,0.26199 2.62766,1.22252 3.72415,1.60342 5.71439,1.98386 1.71009,0.32688 3.50986,0.43352 5.11234,0.30334 1.82779,-0.14849 3.92038,-0.54632 4.70773,-0.89503 0.25162,-0.1114 0.2272,-0.1156 -0.36534,-0.0615 -1.12382,0.10256 -4.72792,0.0653 -5.5454,-0.0574 -0.88083,-0.13217 -2.7531,-0.54991 -3.33005,-0.7431 -0.58203,-0.1949 -1.78477,-0.68611 -2.1735,-0.88781 -0.18626,-0.0966 -0.51416,-0.26834 -0.72863,-0.38137 -0.45143,-0.23789 -1.18862,-0.97866 -1.78388,-1.79214 -0.22844,-0.3122 -0.47056,-0.6338 -0.53795,-0.7152 -0.40677,-0.49098 -1.67335,-2.87719 -1.93579,-3.6468 -0.0664,-0.19475 -0.19953,-0.55368 -0.29613,-0.79789 -0.37102,-0.93836 -0.90937,-3.15648 -1.10482,-4.55166 -0.0522,-0.37253 -0.11599,-0.7725 -0.1416,-0.88883 -0.11356,-0.5163 0.09,-0.0154 0.34986,0.86041 1.04994,3.53913 2.66433,6.30698 5.12733,8.79171 0.81756,0.82477 2.20991,2.03192 2.34405,2.03192 0.0664,0 0.25421,-0.42149 0.94258,-2.11667 0.32972,-0.81203 0.85026,-2.54656 1.0795,-3.59823 0.18002,-0.82582 0.2291,-1.31346 0.26202,-2.60553 0.0387,-1.52255 0.0301,-1.6301 -0.19431,-2.54041 -0.56291,-2.28292 -1.67281,-3.82638 -4.35581,-6.05751 -2.64898,-2.20283 -4.23334,-3.69562 -4.23334,-3.98839 0,-0.0499 -0.0343,-0.0909 -0.076,-0.0909 -0.10295,0 -0.79425,-1.12002 -1.11725,-1.81022 -0.15643,-0.33432 -0.2794,-0.52694 -0.34984,-0.55759 -0.0106,-0.005 -0.0198,-0.005 -0.0279,-0.003 z"
           id="path62" />
        <path
           id="path93"
           style="fill:#339c34;fill-opacity:1;stroke-width:0.0846667"
           d="m 334.57176,203.24799 c -0.16621,-0.0169 -0.4232,0.085 -0.82113,0.26096 -0.56849,0.25138 -0.74081,0.49116 -0.52451,0.73019 0.0797,0.0881 0.20785,0.18024 0.28474,0.20464 0.23842,0.0757 0.43045,0.50757 0.43045,0.9679 0,0.24721 -0.038,0.4315 -0.0894,0.4315 -0.0494,0 -0.0665,0.0373 -0.0382,0.0832 0.0781,0.1263 -0.3261,0.76129 -0.73589,1.156 -0.41508,0.39982 -1.34776,0.92439 -1.7916,1.00769 -0.047,0.009 -0.0884,0.011 -0.13023,0.0129 l -0.005,0.006 -1.55906,1.03922 1.18081,-0.23616 -0.37777,1.13429 1.08675,-0.47283 0.28321,1.18132 0.37824,-1.22835 0.14108,-0.03 c -0.003,-0.0707 0.0302,-0.15112 0.0925,-0.21343 0.0758,-0.0758 0.10906,-0.13797 0.0744,-0.13797 -0.0347,0 0.0249,-0.0934 0.13229,-0.20774 0.10737,-0.1143 0.22294,-0.20068 0.25633,-0.19069 0.0904,0.0259 1.14673,-1.23859 1.41023,-1.68827 0.4858,-0.82895 0.62322,-1.38569 0.62322,-2.52542 0,-0.89821 -0.0242,-1.25657 -0.30128,-1.28468 z" />
        <path
           id="path98"
           style="fill:#9bcf35;fill-opacity:1;stroke-width:0.0846667"
           d="m 320.62792,197.09169 c -0.0503,-0.006 -0.10011,0.005 -0.15038,0.0315 -0.24519,0.13122 -0.80087,0.85378 -1.10691,1.43867 -0.1583,0.30268 -0.29676,0.56493 -0.30747,0.58343 -0.002,0.004 -0.014,0.002 -0.03,-0.003 v 0 c -0.61499,-0.42056 -0.96138,-0.54411 -1.40763,-0.6899 -0.44706,-0.13934 -0.92101,-0.21198 -1.4118,-0.21549 l 1.97094,1.31361 -1.43661,1.16892 2.23811,-0.83509 1.60404,1.73736 -0.70177,-2.00453 1.99471,-0.38602 c -0.0523,-0.008 -0.10522,-0.016 -0.15865,-0.0227 -0.31518,-0.0789 -0.66155,-0.0485 -1.02991,-0.0351 -0.37114,0.014 -0.58687,0.008 -0.67334,-0.0227 l -0.0326,-0.001 0.0119,-0.009 c -0.0177,-0.01 -0.0289,-0.0213 -0.0289,-0.0351 0,-0.24401 0.27927,-0.84959 0.60875,-1.3193 0.34087,-0.48594 0.35116,-0.5178 0.20205,-0.62684 -0.0534,-0.0391 -0.10416,-0.0618 -0.15451,-0.0677 z" />
      </g>
    </g>
  </g>
</svg>
